<mxfile host="app.diagrams.net" modified="2022-03-22T06:30:23.714Z" agent="5.0 (Windows NT 10.0; Win64; x64) AppleWebKit/537.36 (KHTML, like Gecko) Chrome/99.0.4844.74 Safari/537.36" etag="YTxHpNLa52Z_ODmiwBGH" version="17.1.3" type="github">
  <diagram id="rADULx-Ek7bLiix6xrIC" name="Page-1">
    <mxGraphModel dx="1422" dy="-144" grid="1" gridSize="10" guides="1" tooltips="1" connect="1" arrows="1" fold="1" page="1" pageScale="1" pageWidth="1100" pageHeight="850" math="0" shadow="0">
      <root>
        <mxCell id="0" />
        <mxCell id="1" parent="0" />
        <mxCell id="XMwFfWenAPQ74JgsBo0J-2" value="" style="rounded=0;whiteSpace=wrap;html=1;fillColor=none;strokeWidth=1;dashed=1;" vertex="1" parent="1">
          <mxGeometry x="203" y="940" width="650" height="533" as="geometry" />
        </mxCell>
        <mxCell id="XMwFfWenAPQ74JgsBo0J-3" style="edgeStyle=orthogonalEdgeStyle;rounded=0;orthogonalLoop=1;jettySize=auto;html=1;entryX=0;entryY=0.5;entryDx=0;entryDy=0;endArrow=none;endFill=0;" edge="1" parent="1" source="XMwFfWenAPQ74JgsBo0J-4" target="XMwFfWenAPQ74JgsBo0J-7">
          <mxGeometry relative="1" as="geometry">
            <mxPoint x="293" y="1132" as="targetPoint" />
            <Array as="points">
              <mxPoint x="295" y="1092" />
            </Array>
          </mxGeometry>
        </mxCell>
        <mxCell id="XMwFfWenAPQ74JgsBo0J-4" value="&lt;span&gt;project-dir&lt;/span&gt;" style="rounded=1;whiteSpace=wrap;html=1;fillColor=#d5e8d4;strokeColor=#82b366;" vertex="1" parent="1">
          <mxGeometry x="239" y="970" width="120" height="60" as="geometry" />
        </mxCell>
        <mxCell id="XMwFfWenAPQ74JgsBo0J-5" style="edgeStyle=orthogonalEdgeStyle;rounded=0;orthogonalLoop=1;jettySize=auto;html=1;entryX=0;entryY=0.5;entryDx=0;entryDy=0;endArrow=none;endFill=0;" edge="1" parent="1" source="XMwFfWenAPQ74JgsBo0J-7" target="XMwFfWenAPQ74JgsBo0J-9">
          <mxGeometry relative="1" as="geometry">
            <Array as="points">
              <mxPoint x="433" y="1169" />
            </Array>
          </mxGeometry>
        </mxCell>
        <mxCell id="XMwFfWenAPQ74JgsBo0J-6" style="edgeStyle=orthogonalEdgeStyle;rounded=0;orthogonalLoop=1;jettySize=auto;html=1;entryX=0;entryY=0.5;entryDx=0;entryDy=0;endArrow=none;endFill=0;" edge="1" parent="1" source="XMwFfWenAPQ74JgsBo0J-7" target="XMwFfWenAPQ74JgsBo0J-11">
          <mxGeometry relative="1" as="geometry">
            <Array as="points">
              <mxPoint x="433" y="1297" />
            </Array>
          </mxGeometry>
        </mxCell>
        <mxCell id="XMwFfWenAPQ74JgsBo0J-7" value="&lt;span&gt;conf&lt;/span&gt;" style="rounded=1;whiteSpace=wrap;html=1;fillColor=#d5e8d4;strokeColor=#82b366;" vertex="1" parent="1">
          <mxGeometry x="373" y="1062" width="120" height="60" as="geometry" />
        </mxCell>
        <mxCell id="XMwFfWenAPQ74JgsBo0J-8" style="edgeStyle=orthogonalEdgeStyle;rounded=0;orthogonalLoop=1;jettySize=auto;html=1;entryX=0;entryY=0.5;entryDx=0;entryDy=0;startArrow=none;startFill=0;endArrow=none;endFill=0;" edge="1" parent="1" source="XMwFfWenAPQ74JgsBo0J-9" target="XMwFfWenAPQ74JgsBo0J-12">
          <mxGeometry relative="1" as="geometry" />
        </mxCell>
        <mxCell id="XMwFfWenAPQ74JgsBo0J-9" value="&lt;span&gt;production&lt;/span&gt;" style="rounded=1;whiteSpace=wrap;html=1;fillColor=#d5e8d4;strokeColor=#82b366;" vertex="1" parent="1">
          <mxGeometry x="509" y="1139" width="120" height="60" as="geometry" />
        </mxCell>
        <mxCell id="XMwFfWenAPQ74JgsBo0J-10" style="edgeStyle=orthogonalEdgeStyle;rounded=0;orthogonalLoop=1;jettySize=auto;html=1;entryX=0;entryY=0.5;entryDx=0;entryDy=0;startArrow=none;startFill=0;endArrow=none;endFill=0;" edge="1" parent="1" source="XMwFfWenAPQ74JgsBo0J-11" target="XMwFfWenAPQ74JgsBo0J-13">
          <mxGeometry relative="1" as="geometry" />
        </mxCell>
        <mxCell id="XMwFfWenAPQ74JgsBo0J-11" value="&lt;span&gt;test&lt;/span&gt;" style="rounded=1;whiteSpace=wrap;html=1;fillColor=#d5e8d4;strokeColor=#82b366;" vertex="1" parent="1">
          <mxGeometry x="515" y="1267" width="120" height="60" as="geometry" />
        </mxCell>
        <mxCell id="XMwFfWenAPQ74JgsBo0J-12" value="mixer-dynamic.yaml" style="rounded=0;whiteSpace=wrap;html=1;fillColor=#f5f5f5;fontColor=#333333;strokeColor=#666666;" vertex="1" parent="1">
          <mxGeometry x="694" y="1156.5" width="137" height="25" as="geometry" />
        </mxCell>
        <mxCell id="XMwFfWenAPQ74JgsBo0J-13" value="mixer-dynamic.yaml" style="rounded=0;whiteSpace=wrap;html=1;fillColor=#f5f5f5;fontColor=#333333;strokeColor=#666666;" vertex="1" parent="1">
          <mxGeometry x="694" y="1284.5" width="137" height="25" as="geometry" />
        </mxCell>
        <mxCell id="XMwFfWenAPQ74JgsBo0J-14" style="edgeStyle=orthogonalEdgeStyle;rounded=0;orthogonalLoop=1;jettySize=auto;html=1;entryX=0;entryY=0.5;entryDx=0;entryDy=0;startArrow=none;startFill=0;endArrow=none;endFill=0;" edge="1" parent="1" source="XMwFfWenAPQ74JgsBo0J-15" target="XMwFfWenAPQ74JgsBo0J-16">
          <mxGeometry relative="1" as="geometry" />
        </mxCell>
        <mxCell id="XMwFfWenAPQ74JgsBo0J-15" value="&lt;span&gt;dev&lt;/span&gt;" style="rounded=1;whiteSpace=wrap;html=1;fillColor=#d5e8d4;strokeColor=#82b366;" vertex="1" parent="1">
          <mxGeometry x="515" y="1395" width="120" height="60" as="geometry" />
        </mxCell>
        <mxCell id="XMwFfWenAPQ74JgsBo0J-16" value="mixer-dynamic.yaml" style="rounded=0;whiteSpace=wrap;html=1;fillColor=#f5f5f5;fontColor=#333333;strokeColor=#666666;" vertex="1" parent="1">
          <mxGeometry x="694" y="1412.5" width="137" height="25" as="geometry" />
        </mxCell>
        <mxCell id="XMwFfWenAPQ74JgsBo0J-17" style="edgeStyle=orthogonalEdgeStyle;rounded=0;orthogonalLoop=1;jettySize=auto;html=1;entryX=0;entryY=0.5;entryDx=0;entryDy=0;endArrow=none;endFill=0;exitX=0.5;exitY=1;exitDx=0;exitDy=0;" edge="1" parent="1" source="XMwFfWenAPQ74JgsBo0J-7" target="XMwFfWenAPQ74JgsBo0J-15">
          <mxGeometry relative="1" as="geometry">
            <mxPoint x="443" y="1132" as="sourcePoint" />
            <mxPoint x="525" y="1307" as="targetPoint" />
            <Array as="points">
              <mxPoint x="433" y="1425" />
            </Array>
          </mxGeometry>
        </mxCell>
        <mxCell id="XMwFfWenAPQ74JgsBo0J-18" value="完整制品" style="text;html=1;strokeColor=none;fillColor=none;align=center;verticalAlign=middle;whiteSpace=wrap;rounded=0;dashed=1;" vertex="1" parent="1">
          <mxGeometry x="390" y="947" width="227" height="18" as="geometry" />
        </mxCell>
        <mxCell id="XMwFfWenAPQ74JgsBo0J-19" style="edgeStyle=orthogonalEdgeStyle;rounded=0;orthogonalLoop=1;jettySize=auto;html=1;entryX=0;entryY=0.5;entryDx=0;entryDy=0;startArrow=none;startFill=0;endArrow=none;endFill=0;" edge="1" parent="1" source="XMwFfWenAPQ74JgsBo0J-20" target="XMwFfWenAPQ74JgsBo0J-21">
          <mxGeometry relative="1" as="geometry" />
        </mxCell>
        <mxCell id="XMwFfWenAPQ74JgsBo0J-20" value="&lt;span&gt;/etc/heracles-conf&lt;br&gt;或者&lt;br&gt;project-dri/tmp/heracles&lt;br&gt;&lt;/span&gt;" style="rounded=1;whiteSpace=wrap;html=1;fillColor=#fff2cc;strokeColor=#d6b656;" vertex="1" parent="1">
          <mxGeometry x="290" y="1749" width="182.5" height="60" as="geometry" />
        </mxCell>
        <mxCell id="XMwFfWenAPQ74JgsBo0J-79" value="运行时更新" style="edgeStyle=orthogonalEdgeStyle;rounded=0;orthogonalLoop=1;jettySize=auto;html=1;entryX=0.5;entryY=0;entryDx=0;entryDy=0;" edge="1" parent="1" source="XMwFfWenAPQ74JgsBo0J-21" target="XMwFfWenAPQ74JgsBo0J-62">
          <mxGeometry relative="1" as="geometry" />
        </mxCell>
        <mxCell id="XMwFfWenAPQ74JgsBo0J-21" value="mixer-dynamic.yaml" style="rounded=0;whiteSpace=wrap;html=1;fillColor=#fff2cc;strokeColor=#d6b656;" vertex="1" parent="1">
          <mxGeometry x="530.5" y="1766.5" width="137" height="25" as="geometry" />
        </mxCell>
        <mxCell id="XMwFfWenAPQ74JgsBo0J-22" value="" style="shape=flexArrow;endArrow=classic;html=1;rounded=0;" edge="1" parent="1">
          <mxGeometry width="50" height="50" relative="1" as="geometry">
            <mxPoint x="64" y="1120" as="sourcePoint" />
            <mxPoint x="192" y="1120" as="targetPoint" />
          </mxGeometry>
        </mxCell>
        <mxCell id="XMwFfWenAPQ74JgsBo0J-23" value="①-配置随制品发布" style="text;html=1;strokeColor=none;fillColor=none;align=center;verticalAlign=middle;whiteSpace=wrap;rounded=0;dashed=1;" vertex="1" parent="1">
          <mxGeometry x="70" y="1077" width="107" height="30" as="geometry" />
        </mxCell>
        <mxCell id="XMwFfWenAPQ74JgsBo0J-24" value="" style="shape=flexArrow;endArrow=classic;html=1;rounded=0;" edge="1" parent="1">
          <mxGeometry width="50" height="50" relative="1" as="geometry">
            <mxPoint x="70" y="1593" as="sourcePoint" />
            <mxPoint x="198" y="1593" as="targetPoint" />
          </mxGeometry>
        </mxCell>
        <mxCell id="XMwFfWenAPQ74JgsBo0J-25" value="②-启动后配置加载内存" style="text;html=1;strokeColor=none;fillColor=none;align=center;verticalAlign=middle;whiteSpace=wrap;rounded=0;dashed=1;" vertex="1" parent="1">
          <mxGeometry x="76" y="1550" width="107" height="30" as="geometry" />
        </mxCell>
        <mxCell id="XMwFfWenAPQ74JgsBo0J-27" value="" style="rounded=0;whiteSpace=wrap;html=1;" vertex="1" parent="1">
          <mxGeometry x="330" y="1580" width="20" height="30" as="geometry" />
        </mxCell>
        <mxCell id="XMwFfWenAPQ74JgsBo0J-29" value="" style="rounded=0;whiteSpace=wrap;html=1;" vertex="1" parent="1">
          <mxGeometry x="350" y="1580" width="20" height="30" as="geometry" />
        </mxCell>
        <mxCell id="XMwFfWenAPQ74JgsBo0J-30" value="" style="rounded=0;whiteSpace=wrap;html=1;" vertex="1" parent="1">
          <mxGeometry x="370" y="1580" width="20" height="30" as="geometry" />
        </mxCell>
        <mxCell id="XMwFfWenAPQ74JgsBo0J-31" value="" style="rounded=0;whiteSpace=wrap;html=1;" vertex="1" parent="1">
          <mxGeometry x="390" y="1580" width="20" height="30" as="geometry" />
        </mxCell>
        <mxCell id="XMwFfWenAPQ74JgsBo0J-32" value="" style="rounded=0;whiteSpace=wrap;html=1;" vertex="1" parent="1">
          <mxGeometry x="410" y="1580" width="20" height="30" as="geometry" />
        </mxCell>
        <mxCell id="XMwFfWenAPQ74JgsBo0J-33" value="" style="rounded=0;whiteSpace=wrap;html=1;" vertex="1" parent="1">
          <mxGeometry x="430" y="1580" width="20" height="30" as="geometry" />
        </mxCell>
        <mxCell id="XMwFfWenAPQ74JgsBo0J-34" value="" style="rounded=0;whiteSpace=wrap;html=1;" vertex="1" parent="1">
          <mxGeometry x="450" y="1580" width="20" height="30" as="geometry" />
        </mxCell>
        <mxCell id="XMwFfWenAPQ74JgsBo0J-35" value="" style="rounded=0;whiteSpace=wrap;html=1;" vertex="1" parent="1">
          <mxGeometry x="470" y="1580" width="20" height="30" as="geometry" />
        </mxCell>
        <mxCell id="XMwFfWenAPQ74JgsBo0J-36" value="" style="rounded=0;whiteSpace=wrap;html=1;" vertex="1" parent="1">
          <mxGeometry x="490" y="1580" width="20" height="30" as="geometry" />
        </mxCell>
        <mxCell id="XMwFfWenAPQ74JgsBo0J-37" value="" style="rounded=0;whiteSpace=wrap;html=1;" vertex="1" parent="1">
          <mxGeometry x="510" y="1580" width="20" height="30" as="geometry" />
        </mxCell>
        <mxCell id="XMwFfWenAPQ74JgsBo0J-38" value="" style="rounded=0;whiteSpace=wrap;html=1;" vertex="1" parent="1">
          <mxGeometry x="530" y="1580" width="20" height="30" as="geometry" />
        </mxCell>
        <mxCell id="XMwFfWenAPQ74JgsBo0J-39" value="" style="rounded=0;whiteSpace=wrap;html=1;" vertex="1" parent="1">
          <mxGeometry x="550" y="1580" width="20" height="30" as="geometry" />
        </mxCell>
        <mxCell id="XMwFfWenAPQ74JgsBo0J-40" value="" style="rounded=0;whiteSpace=wrap;html=1;" vertex="1" parent="1">
          <mxGeometry x="570" y="1580" width="20" height="30" as="geometry" />
        </mxCell>
        <mxCell id="XMwFfWenAPQ74JgsBo0J-41" value="" style="rounded=0;whiteSpace=wrap;html=1;" vertex="1" parent="1">
          <mxGeometry x="590" y="1580" width="20" height="30" as="geometry" />
        </mxCell>
        <mxCell id="XMwFfWenAPQ74JgsBo0J-42" value="" style="rounded=0;whiteSpace=wrap;html=1;" vertex="1" parent="1">
          <mxGeometry x="610" y="1580" width="20" height="30" as="geometry" />
        </mxCell>
        <mxCell id="XMwFfWenAPQ74JgsBo0J-43" value="" style="rounded=0;whiteSpace=wrap;html=1;" vertex="1" parent="1">
          <mxGeometry x="630" y="1580" width="20" height="30" as="geometry" />
        </mxCell>
        <mxCell id="XMwFfWenAPQ74JgsBo0J-44" value="" style="rounded=0;whiteSpace=wrap;html=1;" vertex="1" parent="1">
          <mxGeometry x="650" y="1580" width="20" height="30" as="geometry" />
        </mxCell>
        <mxCell id="XMwFfWenAPQ74JgsBo0J-45" value="" style="rounded=0;whiteSpace=wrap;html=1;" vertex="1" parent="1">
          <mxGeometry x="670" y="1580" width="20" height="30" as="geometry" />
        </mxCell>
        <mxCell id="XMwFfWenAPQ74JgsBo0J-46" value="" style="rounded=0;whiteSpace=wrap;html=1;" vertex="1" parent="1">
          <mxGeometry x="690" y="1580" width="20" height="30" as="geometry" />
        </mxCell>
        <mxCell id="XMwFfWenAPQ74JgsBo0J-47" value="" style="rounded=0;whiteSpace=wrap;html=1;" vertex="1" parent="1">
          <mxGeometry x="710" y="1580" width="20" height="30" as="geometry" />
        </mxCell>
        <mxCell id="XMwFfWenAPQ74JgsBo0J-48" value="" style="rounded=0;whiteSpace=wrap;html=1;" vertex="1" parent="1">
          <mxGeometry x="730" y="1580" width="20" height="30" as="geometry" />
        </mxCell>
        <mxCell id="XMwFfWenAPQ74JgsBo0J-50" value="启动加载" style="edgeStyle=orthogonalEdgeStyle;rounded=0;orthogonalLoop=1;jettySize=auto;html=1;entryX=0.5;entryY=0;entryDx=0;entryDy=0;" edge="1" parent="1" source="XMwFfWenAPQ74JgsBo0J-49" target="XMwFfWenAPQ74JgsBo0J-38">
          <mxGeometry relative="1" as="geometry" />
        </mxCell>
        <mxCell id="XMwFfWenAPQ74JgsBo0J-49" value="${project-dir}/conf/${cloud_env}/mixer-dynamic.yaml" style="rounded=0;whiteSpace=wrap;html=1;fillColor=#f5f5f5;fontColor=#333333;strokeColor=#666666;" vertex="1" parent="1">
          <mxGeometry x="220" y="1510" width="297" height="25" as="geometry" />
        </mxCell>
        <mxCell id="XMwFfWenAPQ74JgsBo0J-51" value="" style="shape=flexArrow;endArrow=classic;html=1;rounded=0;" edge="1" parent="1">
          <mxGeometry width="50" height="50" relative="1" as="geometry">
            <mxPoint x="76" y="1832" as="sourcePoint" />
            <mxPoint x="204" y="1832" as="targetPoint" />
          </mxGeometry>
        </mxCell>
        <mxCell id="XMwFfWenAPQ74JgsBo0J-52" value="③-配置中心运行时下载配置-覆盖配置(选择性)" style="text;html=1;strokeColor=none;fillColor=none;align=center;verticalAlign=middle;whiteSpace=wrap;rounded=0;dashed=1;" vertex="1" parent="1">
          <mxGeometry x="82" y="1789" width="107" height="30" as="geometry" />
        </mxCell>
        <mxCell id="XMwFfWenAPQ74JgsBo0J-53" value="" style="rounded=0;whiteSpace=wrap;html=1;" vertex="1" parent="1">
          <mxGeometry x="330" y="1899" width="20" height="30" as="geometry" />
        </mxCell>
        <mxCell id="XMwFfWenAPQ74JgsBo0J-54" value="" style="rounded=0;whiteSpace=wrap;html=1;" vertex="1" parent="1">
          <mxGeometry x="350" y="1899" width="20" height="30" as="geometry" />
        </mxCell>
        <mxCell id="XMwFfWenAPQ74JgsBo0J-55" value="" style="rounded=0;whiteSpace=wrap;html=1;" vertex="1" parent="1">
          <mxGeometry x="370" y="1899" width="20" height="30" as="geometry" />
        </mxCell>
        <mxCell id="XMwFfWenAPQ74JgsBo0J-56" value="" style="rounded=0;whiteSpace=wrap;html=1;" vertex="1" parent="1">
          <mxGeometry x="390" y="1899" width="20" height="30" as="geometry" />
        </mxCell>
        <mxCell id="XMwFfWenAPQ74JgsBo0J-57" value="" style="rounded=0;whiteSpace=wrap;html=1;" vertex="1" parent="1">
          <mxGeometry x="410" y="1899" width="20" height="30" as="geometry" />
        </mxCell>
        <mxCell id="XMwFfWenAPQ74JgsBo0J-58" value="" style="rounded=0;whiteSpace=wrap;html=1;" vertex="1" parent="1">
          <mxGeometry x="430" y="1899" width="20" height="30" as="geometry" />
        </mxCell>
        <mxCell id="XMwFfWenAPQ74JgsBo0J-59" value="" style="rounded=0;whiteSpace=wrap;html=1;" vertex="1" parent="1">
          <mxGeometry x="450" y="1899" width="20" height="30" as="geometry" />
        </mxCell>
        <mxCell id="XMwFfWenAPQ74JgsBo0J-60" value="" style="rounded=0;whiteSpace=wrap;html=1;" vertex="1" parent="1">
          <mxGeometry x="470" y="1899" width="20" height="30" as="geometry" />
        </mxCell>
        <mxCell id="XMwFfWenAPQ74JgsBo0J-61" value="" style="rounded=0;whiteSpace=wrap;html=1;" vertex="1" parent="1">
          <mxGeometry x="490" y="1899" width="20" height="30" as="geometry" />
        </mxCell>
        <mxCell id="XMwFfWenAPQ74JgsBo0J-62" value="" style="rounded=0;whiteSpace=wrap;html=1;" vertex="1" parent="1">
          <mxGeometry x="510" y="1899" width="20" height="30" as="geometry" />
        </mxCell>
        <mxCell id="XMwFfWenAPQ74JgsBo0J-63" value="" style="rounded=0;whiteSpace=wrap;html=1;" vertex="1" parent="1">
          <mxGeometry x="530" y="1899" width="20" height="30" as="geometry" />
        </mxCell>
        <mxCell id="XMwFfWenAPQ74JgsBo0J-64" value="" style="rounded=0;whiteSpace=wrap;html=1;" vertex="1" parent="1">
          <mxGeometry x="550" y="1899" width="20" height="30" as="geometry" />
        </mxCell>
        <mxCell id="XMwFfWenAPQ74JgsBo0J-65" value="" style="rounded=0;whiteSpace=wrap;html=1;" vertex="1" parent="1">
          <mxGeometry x="570" y="1899" width="20" height="30" as="geometry" />
        </mxCell>
        <mxCell id="XMwFfWenAPQ74JgsBo0J-66" value="" style="rounded=0;whiteSpace=wrap;html=1;" vertex="1" parent="1">
          <mxGeometry x="590" y="1899" width="20" height="30" as="geometry" />
        </mxCell>
        <mxCell id="XMwFfWenAPQ74JgsBo0J-67" value="" style="rounded=0;whiteSpace=wrap;html=1;" vertex="1" parent="1">
          <mxGeometry x="610" y="1899" width="20" height="30" as="geometry" />
        </mxCell>
        <mxCell id="XMwFfWenAPQ74JgsBo0J-68" value="" style="rounded=0;whiteSpace=wrap;html=1;" vertex="1" parent="1">
          <mxGeometry x="630" y="1899" width="20" height="30" as="geometry" />
        </mxCell>
        <mxCell id="XMwFfWenAPQ74JgsBo0J-69" value="" style="rounded=0;whiteSpace=wrap;html=1;" vertex="1" parent="1">
          <mxGeometry x="650" y="1899" width="20" height="30" as="geometry" />
        </mxCell>
        <mxCell id="XMwFfWenAPQ74JgsBo0J-70" value="" style="rounded=0;whiteSpace=wrap;html=1;" vertex="1" parent="1">
          <mxGeometry x="670" y="1899" width="20" height="30" as="geometry" />
        </mxCell>
        <mxCell id="XMwFfWenAPQ74JgsBo0J-71" value="" style="rounded=0;whiteSpace=wrap;html=1;" vertex="1" parent="1">
          <mxGeometry x="690" y="1899" width="20" height="30" as="geometry" />
        </mxCell>
        <mxCell id="XMwFfWenAPQ74JgsBo0J-72" value="" style="rounded=0;whiteSpace=wrap;html=1;" vertex="1" parent="1">
          <mxGeometry x="710" y="1899" width="20" height="30" as="geometry" />
        </mxCell>
        <mxCell id="XMwFfWenAPQ74JgsBo0J-73" value="" style="rounded=0;whiteSpace=wrap;html=1;" vertex="1" parent="1">
          <mxGeometry x="730" y="1899" width="20" height="30" as="geometry" />
        </mxCell>
        <mxCell id="XMwFfWenAPQ74JgsBo0J-77" style="edgeStyle=orthogonalEdgeStyle;rounded=0;orthogonalLoop=1;jettySize=auto;html=1;entryX=0.5;entryY=0;entryDx=0;entryDy=0;" edge="1" parent="1" source="XMwFfWenAPQ74JgsBo0J-75" target="XMwFfWenAPQ74JgsBo0J-20">
          <mxGeometry relative="1" as="geometry" />
        </mxCell>
        <mxCell id="XMwFfWenAPQ74JgsBo0J-75" value="heracles-sdk" style="rounded=0;whiteSpace=wrap;html=1;fillColor=#fff2cc;strokeColor=#d6b656;" vertex="1" parent="1">
          <mxGeometry x="313" y="1675" width="137" height="25" as="geometry" />
        </mxCell>
        <mxCell id="XMwFfWenAPQ74JgsBo0J-78" value="tcp下载(可应用灰度策略)" style="text;html=1;strokeColor=none;fillColor=none;align=center;verticalAlign=middle;whiteSpace=wrap;rounded=0;dashed=1;" vertex="1" parent="1">
          <mxGeometry x="327" y="1709" width="290" height="30" as="geometry" />
        </mxCell>
        <mxCell id="XMwFfWenAPQ74JgsBo0J-82" value="服务进程内存" style="text;html=1;strokeColor=none;fillColor=none;align=center;verticalAlign=middle;whiteSpace=wrap;rounded=0;dashed=1;" vertex="1" parent="1">
          <mxGeometry x="223" y="1899" width="107" height="30" as="geometry" />
        </mxCell>
        <mxCell id="XMwFfWenAPQ74JgsBo0J-83" value="根据${cloud_env}读取目录" style="text;html=1;strokeColor=none;fillColor=none;align=center;verticalAlign=middle;whiteSpace=wrap;rounded=0;dashed=1;" vertex="1" parent="1">
          <mxGeometry x="281.5" y="1480" width="174" height="30" as="geometry" />
        </mxCell>
        <mxCell id="XMwFfWenAPQ74JgsBo0J-86" value="服务进程内存" style="text;html=1;strokeColor=none;fillColor=none;align=center;verticalAlign=middle;whiteSpace=wrap;rounded=0;dashed=1;" vertex="1" parent="1">
          <mxGeometry x="223" y="1580" width="107" height="30" as="geometry" />
        </mxCell>
      </root>
    </mxGraphModel>
  </diagram>
</mxfile>
